solid STL generated by MeshLab
  facet normal  9.970658e-01  0.000000e+00 -7.654853e-02
    outer loop
      vertex   3.197656e+00  1.000000e+00  4.694701e-01
      vertex   3.200000e+00  1.000000e+00  5.000000e-01
      vertex   3.200000e+00  1.087705e-32  5.000000e-01
    endloop
  endfacet
  facet normal  9.970658e-01  0.000000e+00 -7.654853e-02
    outer loop
      vertex   3.197656e+00  1.000000e+00  4.694701e-01
      vertex   3.200000e+00  1.087705e-32  5.000000e-01
      vertex   3.197656e+00 -6.778990e-18  4.694701e-01
    endloop
  endfacet
  facet normal  9.736952e-01  0.000000e+00 -2.278546e-01
    outer loop
      vertex   3.190679e+00  1.000000e+00  4.396559e-01
      vertex   3.197656e+00 -6.778990e-18  4.694701e-01
      vertex   3.190679e+00 -1.339909e-17  4.396559e-01
    endloop
  endfacet
  facet normal  9.736952e-01  0.000000e+00 -2.278546e-01
    outer loop
      vertex   3.190679e+00  1.000000e+00  4.396559e-01
      vertex   3.197656e+00  1.000000e+00  4.694701e-01
      vertex   3.197656e+00 -6.778990e-18  4.694701e-01
    endloop
  endfacet
  facet normal  9.275017e-01  0.000000e+00 -3.738190e-01
    outer loop
      vertex   3.179233e+00  1.000000e+00  4.112560e-01
      vertex   3.190679e+00 -1.339909e-17  4.396559e-01
      vertex   3.179233e+00 -1.970512e-17  4.112560e-01
    endloop
  endfacet
  facet normal  9.275017e-01  0.000000e+00 -3.738190e-01
    outer loop
      vertex   3.179233e+00  1.000000e+00  4.112560e-01
      vertex   3.190679e+00  1.000000e+00  4.396559e-01
      vertex   3.190679e+00 -1.339909e-17  4.396559e-01
    endloop
  endfacet
  facet normal  8.595703e-01  0.000000e+00 -5.110174e-01
    outer loop
      vertex   3.163586e+00  1.000000e+00  3.849363e-01
      vertex   3.179233e+00  1.000000e+00  4.112560e-01
      vertex   3.179233e+00 -1.970512e-17  4.112560e-01
    endloop
  endfacet
  facet normal  8.595703e-01  0.000000e+00 -5.110174e-01
    outer loop
      vertex   3.163586e+00  1.000000e+00  3.849363e-01
      vertex   3.179233e+00 -1.970512e-17  4.112560e-01
      vertex   3.163586e+00 -2.554928e-17  3.849363e-01
    endloop
  endfacet
  facet normal  7.714877e-01  0.000000e+00 -6.362443e-01
    outer loop
      vertex   3.144104e+00  1.000000e+00  3.613135e-01
      vertex   3.163586e+00  1.000000e+00  3.849363e-01
      vertex   3.163586e+00 -2.554928e-17  3.849363e-01
    endloop
  endfacet
  facet normal  7.714872e-01 -1.896157e-08 -6.362448e-01
    outer loop
      vertex   3.144104e+00  1.000000e+00  3.613135e-01
      vertex   3.163586e+00 -2.554928e-17  3.849363e-01
      vertex   3.144104e+00 -3.079459e-17  3.613135e-01
    endloop
  endfacet
  facet normal  6.653278e-01 -2.186143e-08 -7.465514e-01
    outer loop
      vertex   3.121245e+00  1.000000e+00  3.409414e-01
      vertex   3.144104e+00  1.000000e+00  3.613135e-01
      vertex   3.144104e+00 -3.079459e-17  3.613135e-01
    endloop
  endfacet
  facet normal  6.653283e-01  0.000000e+00 -7.465509e-01
    outer loop
      vertex   3.121245e+00  1.000000e+00  3.409414e-01
      vertex   3.144104e+00 -3.079459e-17  3.613135e-01
      vertex   3.121245e+00 -3.531810e-17  3.409414e-01
    endloop
  endfacet
  facet normal  5.435652e-01  0.000000e+00 -8.393670e-01
    outer loop
      vertex   3.095544e+00  1.000000e+00  3.242975e-01
      vertex   3.121245e+00  1.000000e+00  3.409414e-01
      vertex   3.121245e+00 -3.531810e-17  3.409414e-01
    endloop
  endfacet
  facet normal  5.435652e-01  0.000000e+00 -8.393670e-01
    outer loop
      vertex   3.095544e+00  1.000000e+00  3.242975e-01
      vertex   3.121245e+00 -3.531810e-17  3.409414e-01
      vertex   3.095544e+00 -3.901378e-17  3.242975e-01
    endloop
  endfacet
  facet normal  4.090695e-01  0.000000e+00 -9.125032e-01
    outer loop
      vertex   3.067603e+00  1.000000e+00  3.117720e-01
      vertex   3.095544e+00  1.000000e+00  3.242975e-01
      vertex   3.095544e+00 -3.901378e-17  3.242975e-01
    endloop
  endfacet
  facet normal  4.090695e-01  0.000000e+00 -9.125032e-01
    outer loop
      vertex   3.067603e+00  1.000000e+00  3.117720e-01
      vertex   3.095544e+00 -3.901378e-17  3.242975e-01
      vertex   3.067603e+00 -4.179501e-17  3.117720e-01
    endloop
  endfacet
  facet normal  2.649824e-01  0.000000e+00 -9.642533e-01
    outer loop
      vertex   3.038078e+00  1.000000e+00  3.036583e-01
      vertex   3.067603e+00  1.000000e+00  3.117720e-01
      vertex   3.067603e+00 -4.179501e-17  3.117720e-01
    endloop
  endfacet
  facet normal  2.649824e-01  0.000000e+00 -9.642533e-01
    outer loop
      vertex   3.038078e+00  1.000000e+00  3.036583e-01
      vertex   3.067603e+00 -4.179501e-17  3.117720e-01
      vertex   3.038078e+00 -4.359661e-17  3.036583e-01
    endloop
  endfacet
  facet normal  1.146836e-01  0.000000e+00 -9.934021e-01
    outer loop
      vertex   3.007661e+00  1.000000e+00  3.001468e-01
      vertex   3.038078e+00  1.000000e+00  3.036583e-01
      vertex   3.038078e+00 -4.359661e-17  3.036583e-01
    endloop
  endfacet
  facet normal  1.146836e-01  0.000000e+00 -9.934021e-01
    outer loop
      vertex   3.007661e+00  1.000000e+00  3.001468e-01
      vertex   3.038078e+00 -4.359661e-17  3.036583e-01
      vertex   3.007661e+00 -4.437633e-17  3.001468e-01
    endloop
  endfacet
  facet normal -3.830252e-02  0.000000e+00 -9.992662e-01
    outer loop
      vertex   2.977063e+00  1.000000e+00  3.013196e-01
      vertex   3.007661e+00  1.000000e+00  3.001468e-01
      vertex   3.007661e+00 -4.437633e-17  3.001468e-01
    endloop
  endfacet
  facet normal -3.830349e-02 -2.978045e-08 -9.992661e-01
    outer loop
      vertex   2.977063e+00  1.000000e+00  3.013196e-01
      vertex   3.007661e+00 -4.437633e-17  3.001468e-01
      vertex   2.977063e+00 -4.411591e-17  3.013196e-01
    endloop
  endfacet
  facet normal -1.903891e-01 -2.925720e-08 -9.817087e-01
    outer loop
      vertex   2.977063e+00  1.000000e+00  3.013196e-01
      vertex   2.977063e+00 -4.411591e-17  3.013196e-01
      vertex   2.947004e+00 -4.282146e-17  3.071493e-01
    endloop
  endfacet
  facet normal -1.903900e-01 -0.000000e+00 -9.817085e-01
    outer loop
      vertex   2.947004e+00  1.000000e+00  3.071493e-01
      vertex   2.977063e+00  1.000000e+00  3.013196e-01
      vertex   2.947004e+00 -4.282146e-17  3.071493e-01
    endloop
  endfacet
  facet normal -3.380174e-01  0.000000e+00 -9.411399e-01
    outer loop
      vertex   2.918186e+00  1.000000e+00  3.174993e-01
      vertex   2.947004e+00  1.000000e+00  3.071493e-01
      vertex   2.947004e+00 -4.282146e-17  3.071493e-01
    endloop
  endfacet
  facet normal -3.380174e-01 -0.000000e+00 -9.411399e-01
    outer loop
      vertex   2.918186e+00  1.000000e+00  3.174993e-01
      vertex   2.947004e+00 -4.282146e-17  3.071493e-01
      vertex   2.918186e+00 -4.052330e-17  3.174993e-01
    endloop
  endfacet
  facet normal -4.777193e-01  0.000000e+00 -8.785125e-01
    outer loop
      vertex   2.891286e+00  1.000000e+00  3.321269e-01
      vertex   2.918186e+00  1.000000e+00  3.174993e-01
      vertex   2.918186e+00 -4.052330e-17  3.174993e-01
    endloop
  endfacet
  facet normal -4.777193e-01 -0.000000e+00 -8.785125e-01
    outer loop
      vertex   2.891286e+00  1.000000e+00  3.321269e-01
      vertex   2.918186e+00 -4.052330e-17  3.174993e-01
      vertex   2.891286e+00 -3.727531e-17  3.321269e-01
    endloop
  endfacet
  facet normal -6.062258e-01  0.000000e+00 -7.952926e-01
    outer loop
      vertex   2.866935e+00  1.000000e+00  3.506894e-01
      vertex   2.891286e+00  1.000000e+00  3.321269e-01
      vertex   2.891286e+00 -3.727531e-17  3.321269e-01
    endloop
  endfacet
  facet normal -6.062258e-01 -0.000000e+00 -7.952926e-01
    outer loop
      vertex   2.866935e+00  1.000000e+00  3.506894e-01
      vertex   2.891286e+00 -3.727531e-17  3.321269e-01
      vertex   2.866935e+00 -3.315362e-17  3.506894e-01
    endloop
  endfacet
  facet normal -7.205230e-01  0.000000e+00 -6.934310e-01
    outer loop
      vertex   2.845702e+00  1.000000e+00  3.727515e-01
      vertex   2.866935e+00  1.000000e+00  3.506894e-01
      vertex   2.866935e+00 -3.315362e-17  3.506894e-01
    endloop
  endfacet
  facet normal -7.205230e-01 -0.000000e+00 -6.934310e-01
    outer loop
      vertex   2.845702e+00  1.000000e+00  3.727515e-01
      vertex   2.866935e+00 -3.315362e-17  3.506894e-01
      vertex   2.845702e+00 -2.825484e-17  3.727515e-01
    endloop
  endfacet
  facet normal -8.179303e-01  0.000000e+00 -5.753173e-01
    outer loop
      vertex   2.828086e+00  1.000000e+00  3.977963e-01
      vertex   2.845702e+00  1.000000e+00  3.727515e-01
      vertex   2.845702e+00 -2.825484e-17  3.727515e-01
    endloop
  endfacet
  facet normal -8.179303e-01 -0.000000e+00 -5.753173e-01
    outer loop
      vertex   2.828086e+00  1.000000e+00  3.977963e-01
      vertex   2.845702e+00 -2.825484e-17  3.727515e-01
      vertex   2.828086e+00 -2.269379e-17  3.977963e-01
    endloop
  endfacet
  facet normal -8.961661e-01 -0.000000e+00 -4.437187e-01
    outer loop
      vertex   2.814500e+00  1.000000e+00  4.252366e-01
      vertex   2.828086e+00 -2.269379e-17  3.977963e-01
      vertex   2.814500e+00 -1.660081e-17  4.252366e-01
    endloop
  endfacet
  facet normal -8.961661e-01  0.000000e+00 -4.437187e-01
    outer loop
      vertex   2.814500e+00  1.000000e+00  4.252366e-01
      vertex   2.828086e+00  1.000000e+00  3.977963e-01
      vertex   2.828086e+00 -2.269379e-17  3.977963e-01
    endloop
  endfacet
  facet normal -9.533952e-01 -0.000000e+00 -3.017243e-01
    outer loop
      vertex   2.814500e+00  1.000000e+00  4.252366e-01
      vertex   2.814500e+00 -1.660081e-17  4.252366e-01
      vertex   2.805261e+00 -1.011873e-17  4.544293e-01
    endloop
  endfacet
  facet normal -9.533952e-01 -0.000000e+00 -3.017243e-01
    outer loop
      vertex   2.805261e+00  1.000000e+00  4.544293e-01
      vertex   2.814500e+00  1.000000e+00  4.252366e-01
      vertex   2.805261e+00 -1.011873e-17  4.544293e-01
    endloop
  endfacet
  facet normal -9.882810e-01 -0.000000e+00 -1.526455e-01
    outer loop
      vertex   2.800587e+00  1.000000e+00  4.846902e-01
      vertex   2.805261e+00 -1.011873e-17  4.544293e-01
      vertex   2.800587e+00 -3.399470e-18  4.846902e-01
    endloop
  endfacet
  facet normal -9.882810e-01  0.000000e+00 -1.526455e-01
    outer loop
      vertex   2.800587e+00  1.000000e+00  4.846902e-01
      vertex   2.805261e+00  1.000000e+00  4.544293e-01
      vertex   2.805261e+00 -1.011873e-17  4.544293e-01
    endloop
  endfacet
  facet normal -1.000000e+00 -0.000000e+00  0.000000e+00
    outer loop
      vertex   2.800587e+00  1.000000e+00  5.153099e-01
      vertex   2.800587e+00 -3.399470e-18  4.846902e-01
      vertex   2.800587e+00  3.399470e-18  5.153099e-01
    endloop
  endfacet
  facet normal -1.000000e+00  0.000000e+00 -0.000000e+00
    outer loop
      vertex   2.800587e+00  1.000000e+00  5.153099e-01
      vertex   2.800587e+00  1.000000e+00  4.846902e-01
      vertex   2.800587e+00 -3.399470e-18  4.846902e-01
    endloop
  endfacet
  facet normal -9.882810e-01  9.098380e-09  1.526455e-01
    outer loop
      vertex   2.805261e+00  1.000000e+00  5.455707e-01
      vertex   2.800587e+00  3.399470e-18  5.153099e-01
      vertex   2.805261e+00  1.011873e-17  5.455707e-01
    endloop
  endfacet
  facet normal -9.882810e-01  0.000000e+00  1.526458e-01
    outer loop
      vertex   2.805261e+00  1.000000e+00  5.455707e-01
      vertex   2.800587e+00  1.000000e+00  5.153099e-01
      vertex   2.800587e+00  3.399470e-18  5.153099e-01
    endloop
  endfacet
  facet normal -9.533951e-01  0.000000e+00  3.017246e-01
    outer loop
      vertex   2.814500e+00  1.000000e+00  5.747634e-01
      vertex   2.805261e+00  1.011873e-17  5.455707e-01
      vertex   2.814500e+00  1.660081e-17  5.747634e-01
    endloop
  endfacet
  facet normal -8.961661e-01  0.000000e+00  4.437187e-01
    outer loop
      vertex   2.814500e+00  1.000000e+00  5.747634e-01
      vertex   2.814500e+00  1.660081e-17  5.747634e-01
      vertex   2.828086e+00  2.269379e-17  6.022037e-01
    endloop
  endfacet
  facet normal -9.533953e-01  1.805934e-08  3.017240e-01
    outer loop
      vertex   2.814500e+00  1.000000e+00  5.747634e-01
      vertex   2.805261e+00  1.000000e+00  5.455707e-01
      vertex   2.805261e+00  1.011873e-17  5.455707e-01
    endloop
  endfacet
  facet normal -8.961661e-01  0.000000e+00  4.437187e-01
    outer loop
      vertex   2.828086e+00  1.000000e+00  6.022037e-01
      vertex   2.814500e+00  1.000000e+00  5.747634e-01
      vertex   2.828086e+00  2.269379e-17  6.022037e-01
    endloop
  endfacet
  facet normal -8.179306e-01  3.429155e-08  5.753168e-01
    outer loop
      vertex   2.845702e+00  1.000000e+00  6.272485e-01
      vertex   2.828086e+00  2.269379e-17  6.022037e-01
      vertex   2.845702e+00  2.825484e-17  6.272485e-01
    endloop
  endfacet
  facet normal -8.179300e-01  0.000000e+00  5.753177e-01
    outer loop
      vertex   2.845702e+00  1.000000e+00  6.272485e-01
      vertex   2.828086e+00  1.000000e+00  6.022037e-01
      vertex   2.828086e+00  2.269379e-17  6.022037e-01
    endloop
  endfacet
  facet normal -7.205226e-01  0.000000e+00  6.934315e-01
    outer loop
      vertex   2.866935e+00  1.000000e+00  6.493106e-01
      vertex   2.845702e+00  2.825484e-17  6.272485e-01
      vertex   2.866935e+00  3.315362e-17  6.493106e-01
    endloop
  endfacet
  facet normal -6.062258e-01  0.000000e+00  7.952926e-01
    outer loop
      vertex   2.866935e+00  1.000000e+00  6.493106e-01
      vertex   2.866935e+00  3.315362e-17  6.493106e-01
      vertex   2.891286e+00  3.727531e-17  6.678731e-01
    endloop
  endfacet
  facet normal -7.205235e-01  4.182178e-08  6.934305e-01
    outer loop
      vertex   2.866935e+00  1.000000e+00  6.493106e-01
      vertex   2.845702e+00  1.000000e+00  6.272485e-01
      vertex   2.845702e+00  2.825484e-17  6.272485e-01
    endloop
  endfacet
  facet normal -6.062258e-01  0.000000e+00  7.952926e-01
    outer loop
      vertex   2.891286e+00  1.000000e+00  6.678731e-01
      vertex   2.866935e+00  1.000000e+00  6.493106e-01
      vertex   2.891286e+00  3.727531e-17  6.678731e-01
    endloop
  endfacet
  facet normal -4.777193e-01  0.000000e+00  8.785125e-01
    outer loop
      vertex   2.918186e+00  1.000000e+00  6.825007e-01
      vertex   2.891286e+00  3.727531e-17  6.678731e-01
      vertex   2.918186e+00  4.052330e-17  6.825007e-01
    endloop
  endfacet
  facet normal -4.777193e-01  0.000000e+00  8.785125e-01
    outer loop
      vertex   2.918186e+00  1.000000e+00  6.825007e-01
      vertex   2.891286e+00  1.000000e+00  6.678731e-01
      vertex   2.891286e+00  3.727531e-17  6.678731e-01
    endloop
  endfacet
  facet normal -3.380174e-01  0.000000e+00  9.411399e-01
    outer loop
      vertex   2.947004e+00  1.000000e+00  6.928507e-01
      vertex   2.918186e+00  1.000000e+00  6.825007e-01
      vertex   2.918186e+00  4.052330e-17  6.825007e-01
    endloop
  endfacet
  facet normal -3.380174e-01  0.000000e+00  9.411399e-01
    outer loop
      vertex   2.947004e+00  1.000000e+00  6.928507e-01
      vertex   2.918186e+00  4.052330e-17  6.825007e-01
      vertex   2.947004e+00  4.282146e-17  6.928507e-01
    endloop
  endfacet
  facet normal -1.903891e-01  0.000000e+00  9.817087e-01
    outer loop
      vertex   2.977063e+00  1.000000e+00  6.986804e-01
      vertex   2.947004e+00  1.000000e+00  6.928507e-01
      vertex   2.947004e+00  4.282146e-17  6.928507e-01
    endloop
  endfacet
  facet normal -1.903891e-01  0.000000e+00  9.817087e-01
    outer loop
      vertex   2.977063e+00  1.000000e+00  6.986804e-01
      vertex   2.947004e+00  4.282146e-17  6.928507e-01
      vertex   2.977063e+00  4.411591e-17  6.986804e-01
    endloop
  endfacet
  facet normal -3.830349e-02  0.000000e+00  9.992661e-01
    outer loop
      vertex   3.007661e+00  1.000000e+00  6.998532e-01
      vertex   2.977063e+00  1.000000e+00  6.986804e-01
      vertex   2.977063e+00  4.411591e-17  6.986804e-01
    endloop
  endfacet
  facet normal -3.830349e-02  0.000000e+00  9.992661e-01
    outer loop
      vertex   3.007661e+00  1.000000e+00  6.998532e-01
      vertex   2.977063e+00  4.411591e-17  6.986804e-01
      vertex   3.007661e+00  4.437633e-17  6.998532e-01
    endloop
  endfacet
  facet normal  1.146845e-01  0.000000e+00  9.934019e-01
    outer loop
      vertex   3.038078e+00  1.000000e+00  6.963416e-01
      vertex   3.007661e+00  1.000000e+00  6.998532e-01
      vertex   3.007661e+00  4.437633e-17  6.998532e-01
    endloop
  endfacet
  facet normal  1.146845e-01  0.000000e+00  9.934019e-01
    outer loop
      vertex   3.038078e+00  1.000000e+00  6.963416e-01
      vertex   3.007661e+00  4.437633e-17  6.998532e-01
      vertex   3.038078e+00  4.359661e-17  6.963416e-01
    endloop
  endfacet
  facet normal  2.649815e-01  0.000000e+00  9.642535e-01
    outer loop
      vertex   3.067603e+00  1.000000e+00  6.882280e-01
      vertex   3.038078e+00  1.000000e+00  6.963416e-01
      vertex   3.038078e+00  4.359661e-17  6.963416e-01
    endloop
  endfacet
  facet normal  2.649815e-01  0.000000e+00  9.642535e-01
    outer loop
      vertex   3.067603e+00  1.000000e+00  6.882280e-01
      vertex   3.038078e+00  4.359661e-17  6.963416e-01
      vertex   3.067603e+00  4.179501e-17  6.882280e-01
    endloop
  endfacet
  facet normal  4.090695e-01  0.000000e+00  9.125032e-01
    outer loop
      vertex   3.095544e+00  1.000000e+00  6.757025e-01
      vertex   3.067603e+00  1.000000e+00  6.882280e-01
      vertex   3.067603e+00  4.179501e-17  6.882280e-01
    endloop
  endfacet
  facet normal  4.090695e-01  0.000000e+00  9.125032e-01
    outer loop
      vertex   3.095544e+00  1.000000e+00  6.757025e-01
      vertex   3.067603e+00  4.179501e-17  6.882280e-01
      vertex   3.095544e+00  3.901378e-17  6.757025e-01
    endloop
  endfacet
  facet normal  5.435652e-01  0.000000e+00  8.393670e-01
    outer loop
      vertex   3.121245e+00  1.000000e+00  6.590586e-01
      vertex   3.095544e+00  1.000000e+00  6.757025e-01
      vertex   3.095544e+00  3.901378e-17  6.757025e-01
    endloop
  endfacet
  facet normal  5.435652e-01  0.000000e+00  8.393670e-01
    outer loop
      vertex   3.121245e+00  1.000000e+00  6.590586e-01
      vertex   3.095544e+00  3.901378e-17  6.757025e-01
      vertex   3.121245e+00  3.531810e-17  6.590586e-01
    endloop
  endfacet
  facet normal  6.653283e-01  0.000000e+00  7.465509e-01
    outer loop
      vertex   3.144104e+00  1.000000e+00  6.386865e-01
      vertex   3.121245e+00  1.000000e+00  6.590586e-01
      vertex   3.121245e+00  3.531810e-17  6.590586e-01
    endloop
  endfacet
  facet normal  6.653283e-01  0.000000e+00  7.465509e-01
    outer loop
      vertex   3.144104e+00  1.000000e+00  6.386865e-01
      vertex   3.121245e+00  3.531810e-17  6.590586e-01
      vertex   3.144104e+00  3.079459e-17  6.386865e-01
    endloop
  endfacet
  facet normal  7.714872e-01  0.000000e+00  6.362448e-01
    outer loop
      vertex   3.163586e+00  1.000000e+00  6.150637e-01
      vertex   3.144104e+00  1.000000e+00  6.386865e-01
      vertex   3.144104e+00  3.079459e-17  6.386865e-01
    endloop
  endfacet
  facet normal  7.714872e-01  0.000000e+00  6.362448e-01
    outer loop
      vertex   3.163586e+00  1.000000e+00  6.150637e-01
      vertex   3.144104e+00  3.079459e-17  6.386865e-01
      vertex   3.163586e+00  2.554928e-17  6.150637e-01
    endloop
  endfacet
  facet normal  8.595703e-01  0.000000e+00  5.110174e-01
    outer loop
      vertex   3.179233e+00  1.000000e+00  5.887440e-01
      vertex   3.163586e+00  1.000000e+00  6.150637e-01
      vertex   3.163586e+00  2.554928e-17  6.150637e-01
    endloop
  endfacet
  facet normal  8.595703e-01  0.000000e+00  5.110174e-01
    outer loop
      vertex   3.179233e+00  1.000000e+00  5.887440e-01
      vertex   3.163586e+00  2.554928e-17  6.150637e-01
      vertex   3.179233e+00  1.970512e-17  5.887440e-01
    endloop
  endfacet
  facet normal  9.275018e-01  0.000000e+00  3.738186e-01
    outer loop
      vertex   3.190679e+00  1.000000e+00  5.603441e-01
      vertex   3.179233e+00  1.000000e+00  5.887440e-01
      vertex   3.179233e+00  1.970512e-17  5.887440e-01
    endloop
  endfacet
  facet normal  9.275018e-01  0.000000e+00  3.738186e-01
    outer loop
      vertex   3.190679e+00  1.000000e+00  5.603441e-01
      vertex   3.179233e+00  1.970512e-17  5.887440e-01
      vertex   3.190679e+00  1.339909e-17  5.603441e-01
    endloop
  endfacet
  facet normal  9.736952e-01  0.000000e+00  2.278548e-01
    outer loop
      vertex   3.197656e+00  1.000000e+00  5.305299e-01
      vertex   3.190679e+00  1.000000e+00  5.603441e-01
      vertex   3.190679e+00  1.339909e-17  5.603441e-01
    endloop
  endfacet
  facet normal  9.736952e-01  0.000000e+00  2.278548e-01
    outer loop
      vertex   3.197656e+00  1.000000e+00  5.305299e-01
      vertex   3.190679e+00  1.339909e-17  5.603441e-01
      vertex   3.197656e+00  6.778990e-18  5.305299e-01
    endloop
  endfacet
  facet normal  9.970658e-01  0.000000e+00  7.654853e-02
    outer loop
      vertex   3.200000e+00  1.000000e+00  5.000000e-01
      vertex   3.197656e+00  1.000000e+00  5.305299e-01
      vertex   3.197656e+00  6.778990e-18  5.305299e-01
    endloop
  endfacet
  facet normal  9.970658e-01  0.000000e+00  7.654853e-02
    outer loop
      vertex   3.200000e+00  1.000000e+00  5.000000e-01
      vertex   3.197656e+00  6.778990e-18  5.305299e-01
      vertex   3.200000e+00  1.087705e-32  5.000000e-01
    endloop
  endfacet
  facet normal  0.000000e+00  1.000000e+00  0.000000e+00
    outer loop
      vertex   3.144104e+00  1.000000e+00  3.613135e-01
      vertex   3.200000e+00  1.000000e+00  5.000000e-01
      vertex   3.197656e+00  1.000000e+00  4.694701e-01
    endloop
  endfacet
  facet normal  0.000000e+00  1.000000e+00  0.000000e+00
    outer loop
      vertex   3.144104e+00  1.000000e+00  3.613135e-01
      vertex   3.197656e+00  1.000000e+00  4.694701e-01
      vertex   3.190679e+00  1.000000e+00  4.396559e-01
    endloop
  endfacet
  facet normal  0.000000e+00  1.000000e+00  0.000000e+00
    outer loop
      vertex   3.144104e+00  1.000000e+00  3.613135e-01
      vertex   3.190679e+00  1.000000e+00  4.396559e-01
      vertex   3.179233e+00  1.000000e+00  4.112560e-01
    endloop
  endfacet
  facet normal  0.000000e+00  1.000000e+00  0.000000e+00
    outer loop
      vertex   3.144104e+00  1.000000e+00  3.613135e-01
      vertex   3.179233e+00  1.000000e+00  4.112560e-01
      vertex   3.163586e+00  1.000000e+00  3.849363e-01
    endloop
  endfacet
  facet normal  0.000000e+00  1.000000e+00  0.000000e+00
    outer loop
      vertex   3.144104e+00  1.000000e+00  3.613135e-01
      vertex   3.121245e+00  1.000000e+00  3.409414e-01
      vertex   3.095544e+00  1.000000e+00  3.242975e-01
    endloop
  endfacet
  facet normal  0.000000e+00  1.000000e+00  0.000000e+00
    outer loop
      vertex   3.144104e+00  1.000000e+00  3.613135e-01
      vertex   3.095544e+00  1.000000e+00  3.242975e-01
      vertex   3.067603e+00  1.000000e+00  3.117720e-01
    endloop
  endfacet
  facet normal  0.000000e+00  1.000000e+00  0.000000e+00
    outer loop
      vertex   3.144104e+00  1.000000e+00  3.613135e-01
      vertex   3.067603e+00  1.000000e+00  3.117720e-01
      vertex   3.038078e+00  1.000000e+00  3.036583e-01
    endloop
  endfacet
  facet normal  0.000000e+00  1.000000e+00  0.000000e+00
    outer loop
      vertex   3.144104e+00  1.000000e+00  3.613135e-01
      vertex   3.038078e+00  1.000000e+00  3.036583e-01
      vertex   3.007661e+00  1.000000e+00  3.001468e-01
    endloop
  endfacet
  facet normal  0.000000e+00  1.000000e+00  0.000000e+00
    outer loop
      vertex   3.144104e+00  1.000000e+00  3.613135e-01
      vertex   3.007661e+00  1.000000e+00  3.001468e-01
      vertex   2.977063e+00  1.000000e+00  3.013196e-01
    endloop
  endfacet
  facet normal  0.000000e+00  1.000000e+00  0.000000e+00
    outer loop
      vertex   3.144104e+00  1.000000e+00  3.613135e-01
      vertex   2.977063e+00  1.000000e+00  3.013196e-01
      vertex   2.947004e+00  1.000000e+00  3.071493e-01
    endloop
  endfacet
  facet normal  0.000000e+00  1.000000e+00  0.000000e+00
    outer loop
      vertex   3.144104e+00  1.000000e+00  3.613135e-01
      vertex   2.947004e+00  1.000000e+00  3.071493e-01
      vertex   2.918186e+00  1.000000e+00  3.174993e-01
    endloop
  endfacet
  facet normal  0.000000e+00  1.000000e+00  0.000000e+00
    outer loop
      vertex   3.144104e+00  1.000000e+00  3.613135e-01
      vertex   2.918186e+00  1.000000e+00  3.174993e-01
      vertex   2.891286e+00  1.000000e+00  3.321269e-01
    endloop
  endfacet
  facet normal  0.000000e+00  1.000000e+00  0.000000e+00
    outer loop
      vertex   3.144104e+00  1.000000e+00  3.613135e-01
      vertex   2.891286e+00  1.000000e+00  3.321269e-01
      vertex   2.866935e+00  1.000000e+00  3.506894e-01
    endloop
  endfacet
  facet normal  0.000000e+00  1.000000e+00  0.000000e+00
    outer loop
      vertex   3.144104e+00  1.000000e+00  3.613135e-01
      vertex   2.866935e+00  1.000000e+00  3.506894e-01
      vertex   2.845702e+00  1.000000e+00  3.727515e-01
    endloop
  endfacet
  facet normal  0.000000e+00  1.000000e+00  0.000000e+00
    outer loop
      vertex   3.144104e+00  1.000000e+00  3.613135e-01
      vertex   2.845702e+00  1.000000e+00  3.727515e-01
      vertex   2.828086e+00  1.000000e+00  3.977963e-01
    endloop
  endfacet
  facet normal  0.000000e+00  1.000000e+00  0.000000e+00
    outer loop
      vertex   3.144104e+00  1.000000e+00  3.613135e-01
      vertex   2.828086e+00  1.000000e+00  3.977963e-01
      vertex   2.814500e+00  1.000000e+00  4.252366e-01
    endloop
  endfacet
  facet normal  0.000000e+00  1.000000e+00  0.000000e+00
    outer loop
      vertex   3.144104e+00  1.000000e+00  3.613135e-01
      vertex   2.814500e+00  1.000000e+00  4.252366e-01
      vertex   2.805261e+00  1.000000e+00  4.544293e-01
    endloop
  endfacet
  facet normal  0.000000e+00  1.000000e+00  0.000000e+00
    outer loop
      vertex   3.144104e+00  1.000000e+00  3.613135e-01
      vertex   2.805261e+00  1.000000e+00  4.544293e-01
      vertex   2.800587e+00  1.000000e+00  4.846902e-01
    endloop
  endfacet
  facet normal  0.000000e+00  1.000000e+00  0.000000e+00
    outer loop
      vertex   3.144104e+00  1.000000e+00  3.613135e-01
      vertex   2.800587e+00  1.000000e+00  4.846902e-01
      vertex   2.800587e+00  1.000000e+00  5.153099e-01
    endloop
  endfacet
  facet normal  0.000000e+00  1.000000e+00  0.000000e+00
    outer loop
      vertex   3.144104e+00  1.000000e+00  3.613135e-01
      vertex   2.800587e+00  1.000000e+00  5.153099e-01
      vertex   2.805261e+00  1.000000e+00  5.455707e-01
    endloop
  endfacet
  facet normal  0.000000e+00  1.000000e+00  0.000000e+00
    outer loop
      vertex   3.144104e+00  1.000000e+00  3.613135e-01
      vertex   2.805261e+00  1.000000e+00  5.455707e-01
      vertex   2.814500e+00  1.000000e+00  5.747634e-01
    endloop
  endfacet
  facet normal  0.000000e+00  1.000000e+00  0.000000e+00
    outer loop
      vertex   3.144104e+00  1.000000e+00  3.613135e-01
      vertex   2.814500e+00  1.000000e+00  5.747634e-01
      vertex   2.828086e+00  1.000000e+00  6.022037e-01
    endloop
  endfacet
  facet normal  0.000000e+00  1.000000e+00  0.000000e+00
    outer loop
      vertex   3.144104e+00  1.000000e+00  3.613135e-01
      vertex   2.828086e+00  1.000000e+00  6.022037e-01
      vertex   2.845702e+00  1.000000e+00  6.272485e-01
    endloop
  endfacet
  facet normal  0.000000e+00  1.000000e+00  0.000000e+00
    outer loop
      vertex   3.144104e+00  1.000000e+00  3.613135e-01
      vertex   2.845702e+00  1.000000e+00  6.272485e-01
      vertex   2.866935e+00  1.000000e+00  6.493106e-01
    endloop
  endfacet
  facet normal  0.000000e+00  1.000000e+00  0.000000e+00
    outer loop
      vertex   3.144104e+00  1.000000e+00  3.613135e-01
      vertex   2.866935e+00  1.000000e+00  6.493106e-01
      vertex   2.891286e+00  1.000000e+00  6.678731e-01
    endloop
  endfacet
  facet normal  0.000000e+00  1.000000e+00  0.000000e+00
    outer loop
      vertex   3.144104e+00  1.000000e+00  3.613135e-01
      vertex   2.891286e+00  1.000000e+00  6.678731e-01
      vertex   2.918186e+00  1.000000e+00  6.825007e-01
    endloop
  endfacet
  facet normal  0.000000e+00  1.000000e+00  0.000000e+00
    outer loop
      vertex   3.144104e+00  1.000000e+00  3.613135e-01
      vertex   2.918186e+00  1.000000e+00  6.825007e-01
      vertex   2.947004e+00  1.000000e+00  6.928507e-01
    endloop
  endfacet
  facet normal  0.000000e+00  1.000000e+00  0.000000e+00
    outer loop
      vertex   3.144104e+00  1.000000e+00  3.613135e-01
      vertex   2.947004e+00  1.000000e+00  6.928507e-01
      vertex   2.977063e+00  1.000000e+00  6.986804e-01
    endloop
  endfacet
  facet normal  0.000000e+00  1.000000e+00  0.000000e+00
    outer loop
      vertex   3.144104e+00  1.000000e+00  3.613135e-01
      vertex   2.977063e+00  1.000000e+00  6.986804e-01
      vertex   3.007661e+00  1.000000e+00  6.998532e-01
    endloop
  endfacet
  facet normal  0.000000e+00  1.000000e+00  0.000000e+00
    outer loop
      vertex   3.144104e+00  1.000000e+00  3.613135e-01
      vertex   3.007661e+00  1.000000e+00  6.998532e-01
      vertex   3.038078e+00  1.000000e+00  6.963416e-01
    endloop
  endfacet
  facet normal  0.000000e+00  1.000000e+00  0.000000e+00
    outer loop
      vertex   3.144104e+00  1.000000e+00  3.613135e-01
      vertex   3.038078e+00  1.000000e+00  6.963416e-01
      vertex   3.067603e+00  1.000000e+00  6.882280e-01
    endloop
  endfacet
  facet normal  0.000000e+00  1.000000e+00  0.000000e+00
    outer loop
      vertex   3.144104e+00  1.000000e+00  3.613135e-01
      vertex   3.067603e+00  1.000000e+00  6.882280e-01
      vertex   3.095544e+00  1.000000e+00  6.757025e-01
    endloop
  endfacet
  facet normal  0.000000e+00  1.000000e+00  0.000000e+00
    outer loop
      vertex   3.144104e+00  1.000000e+00  3.613135e-01
      vertex   3.095544e+00  1.000000e+00  6.757025e-01
      vertex   3.121245e+00  1.000000e+00  6.590586e-01
    endloop
  endfacet
  facet normal  0.000000e+00  1.000000e+00 -0.000000e+00
    outer loop
      vertex   3.144104e+00  1.000000e+00  3.613135e-01
      vertex   3.121245e+00  1.000000e+00  6.590586e-01
      vertex   3.144104e+00  1.000000e+00  6.386865e-01
    endloop
  endfacet
  facet normal  0.000000e+00  1.000000e+00  0.000000e+00
    outer loop
      vertex   3.144104e+00  1.000000e+00  3.613135e-01
      vertex   3.144104e+00  1.000000e+00  6.386865e-01
      vertex   3.163586e+00  1.000000e+00  6.150637e-01
    endloop
  endfacet
  facet normal  0.000000e+00  1.000000e+00  0.000000e+00
    outer loop
      vertex   3.144104e+00  1.000000e+00  3.613135e-01
      vertex   3.163586e+00  1.000000e+00  6.150637e-01
      vertex   3.179233e+00  1.000000e+00  5.887440e-01
    endloop
  endfacet
  facet normal  0.000000e+00  1.000000e+00  0.000000e+00
    outer loop
      vertex   3.144104e+00  1.000000e+00  3.613135e-01
      vertex   3.179233e+00  1.000000e+00  5.887440e-01
      vertex   3.190679e+00  1.000000e+00  5.603441e-01
    endloop
  endfacet
  facet normal  0.000000e+00  1.000000e+00  0.000000e+00
    outer loop
      vertex   3.144104e+00  1.000000e+00  3.613135e-01
      vertex   3.190679e+00  1.000000e+00  5.603441e-01
      vertex   3.197656e+00  1.000000e+00  5.305299e-01
    endloop
  endfacet
  facet normal  0.000000e+00  1.000000e+00  0.000000e+00
    outer loop
      vertex   3.144104e+00  1.000000e+00  3.613135e-01
      vertex   3.197656e+00  1.000000e+00  5.305299e-01
      vertex   3.200000e+00  1.000000e+00  5.000000e-01
    endloop
  endfacet
  facet normal  7.484851e-23 -1.000000e+00  2.220446e-16
    outer loop
      vertex   3.200000e+00  1.087705e-32  5.000000e-01
      vertex   3.144104e+00 -3.079459e-17  3.613135e-01
      vertex   3.197656e+00 -6.778990e-18  4.694701e-01
    endloop
  endfacet
  facet normal  4.297899e-22 -1.000000e+00  2.220444e-16
    outer loop
      vertex   3.197656e+00 -6.778990e-18  4.694701e-01
      vertex   3.144104e+00 -3.079459e-17  3.613135e-01
      vertex   3.190679e+00 -1.339909e-17  4.396559e-01
    endloop
  endfacet
  facet normal  6.067932e-22 -1.000000e+00  2.220444e-16
    outer loop
      vertex   3.190679e+00 -1.339909e-17  4.396559e-01
      vertex   3.144104e+00 -3.079459e-17  3.613135e-01
      vertex   3.179233e+00 -1.970512e-17  4.112560e-01
    endloop
  endfacet
  facet normal -3.612194e-22 -1.000000e+00  2.220451e-16
    outer loop
      vertex   3.179233e+00 -1.970512e-17  4.112560e-01
      vertex   3.144104e+00 -3.079459e-17  3.613135e-01
      vertex   3.163586e+00 -2.554928e-17  3.849363e-01
    endloop
  endfacet
  facet normal  4.063664e-22 -1.000000e+00  2.220440e-16
    outer loop
      vertex   3.121245e+00 -3.531810e-17  3.409414e-01
      vertex   3.144104e+00 -3.079459e-17  3.613135e-01
      vertex   3.095544e+00 -3.901378e-17  3.242975e-01
    endloop
  endfacet
  facet normal  1.061890e-22 -1.000000e+00  2.220444e-16
    outer loop
      vertex   3.095544e+00 -3.901378e-17  3.242975e-01
      vertex   3.144104e+00 -3.079459e-17  3.613135e-01
      vertex   3.067603e+00 -4.179501e-17  3.117720e-01
    endloop
  endfacet
  facet normal  3.069948e-23 -1.000000e+00  2.220445e-16
    outer loop
      vertex   3.067603e+00 -4.179501e-17  3.117720e-01
      vertex   3.144104e+00 -3.079459e-17  3.613135e-01
      vertex   3.038078e+00 -4.359661e-17  3.036583e-01
    endloop
  endfacet
  facet normal  7.017078e-24 -1.000000e+00  2.220445e-16
    outer loop
      vertex   3.038078e+00 -4.359661e-17  3.036583e-01
      vertex   3.144104e+00 -3.079459e-17  3.613135e-01
      vertex   3.007661e+00 -4.437633e-17  3.001468e-01
    endloop
  endfacet
  facet normal  9.781514e-23 -1.000000e+00  2.220443e-16
    outer loop
      vertex   3.007661e+00 -4.437633e-17  3.001468e-01
      vertex   3.144104e+00 -3.079459e-17  3.613135e-01
      vertex   2.977063e+00 -4.411591e-17  3.013196e-01
    endloop
  endfacet
  facet normal -1.419426e-22 -1.000000e+00  2.220450e-16
    outer loop
      vertex   2.977063e+00 -4.411591e-17  3.013196e-01
      vertex   3.144104e+00 -3.079459e-17  3.613135e-01
      vertex   2.947004e+00 -4.282146e-17  3.071493e-01
    endloop
  endfacet
  facet normal  2.871467e-23 -1.000000e+00  2.220444e-16
    outer loop
      vertex   2.947004e+00 -4.282146e-17  3.071493e-01
      vertex   3.144104e+00 -3.079459e-17  3.613135e-01
      vertex   2.918186e+00 -4.052330e-17  3.174993e-01
    endloop
  endfacet
  facet normal -1.153156e-23 -1.000000e+00  2.220446e-16
    outer loop
      vertex   2.918186e+00 -4.052330e-17  3.174993e-01
      vertex   3.144104e+00 -3.079459e-17  3.613135e-01
      vertex   2.891286e+00 -3.727531e-17  3.321269e-01
    endloop
  endfacet
  facet normal -9.567373e-24 -1.000000e+00  2.220446e-16
    outer loop
      vertex   2.891286e+00 -3.727531e-17  3.321269e-01
      vertex   3.144104e+00 -3.079459e-17  3.613135e-01
      vertex   2.866935e+00 -3.315362e-17  3.506894e-01
    endloop
  endfacet
  facet normal -1.121133e-23 -1.000000e+00  2.220446e-16
    outer loop
      vertex   2.866935e+00 -3.315362e-17  3.506894e-01
      vertex   3.144104e+00 -3.079459e-17  3.613135e-01
      vertex   2.845702e+00 -2.825484e-17  3.727515e-01
    endloop
  endfacet
  facet normal -1.333008e-23 -1.000000e+00  2.220445e-16
    outer loop
      vertex   2.845702e+00 -2.825484e-17  3.727515e-01
      vertex   3.144104e+00 -3.079459e-17  3.613135e-01
      vertex   2.828086e+00 -2.269379e-17  3.977963e-01
    endloop
  endfacet
  facet normal  3.161634e-24 -1.000000e+00  2.220447e-16
    outer loop
      vertex   2.828086e+00 -2.269379e-17  3.977963e-01
      vertex   3.144104e+00 -3.079459e-17  3.613135e-01
      vertex   2.814500e+00 -1.660081e-17  4.252366e-01
    endloop
  endfacet
  facet normal -8.586425e-24 -1.000000e+00  2.220446e-16
    outer loop
      vertex   2.814500e+00 -1.660081e-17  4.252366e-01
      vertex   3.144104e+00 -3.079459e-17  3.613135e-01
      vertex   2.805261e+00 -1.011873e-17  4.544293e-01
    endloop
  endfacet
  facet normal -3.159277e-23 -1.000000e+00  2.220445e-16
    outer loop
      vertex   2.805261e+00 -1.011873e-17  4.544293e-01
      vertex   3.144104e+00 -3.079459e-17  3.613135e-01
      vertex   2.800587e+00 -3.399470e-18  4.846902e-01
    endloop
  endfacet
  facet normal -2.949049e-23 -1.000000e+00  2.220446e-16
    outer loop
      vertex   2.800587e+00 -3.399470e-18  4.846902e-01
      vertex   3.144104e+00 -3.079459e-17  3.613135e-01
      vertex   2.800587e+00  3.399470e-18  5.153099e-01
    endloop
  endfacet
  facet normal -3.721043e-23 -1.000000e+00  2.220445e-16
    outer loop
      vertex   2.800587e+00  3.399470e-18  5.153099e-01
      vertex   3.144104e+00 -3.079459e-17  3.613135e-01
      vertex   2.805261e+00  1.011873e-17  5.455707e-01
    endloop
  endfacet
  facet normal  1.159361e-22 -1.000000e+00  2.220448e-16
    outer loop
      vertex   2.805261e+00  1.011873e-17  5.455707e-01
      vertex   3.144104e+00 -3.079459e-17  3.613135e-01
      vertex   2.814500e+00  1.660081e-17  5.747634e-01
    endloop
  endfacet
  facet normal  2.596952e-23 -1.000000e+00  2.220447e-16
    outer loop
      vertex   2.814500e+00  1.660081e-17  5.747634e-01
      vertex   3.144104e+00 -3.079459e-17  3.613135e-01
      vertex   2.828086e+00  2.269379e-17  6.022037e-01
    endloop
  endfacet
  facet normal -1.785922e-22 -1.000000e+00  2.220444e-16
    outer loop
      vertex   2.828086e+00  2.269379e-17  6.022037e-01
      vertex   3.144104e+00 -3.079459e-17  3.613135e-01
      vertex   2.845702e+00  2.825484e-17  6.272485e-01
    endloop
  endfacet
  facet normal  1.437266e-22 -1.000000e+00  2.220448e-16
    outer loop
      vertex   2.845702e+00  2.825484e-17  6.272485e-01
      vertex   3.144104e+00 -3.079459e-17  3.613135e-01
      vertex   2.866935e+00  3.315362e-17  6.493106e-01
    endloop
  endfacet
  facet normal  0.000000e+00 -1.000000e+00  2.220446e-16
    outer loop
      vertex   2.866935e+00  3.315362e-17  6.493106e-01
      vertex   3.144104e+00 -3.079459e-17  3.613135e-01
      vertex   2.891286e+00  3.727531e-17  6.678731e-01
    endloop
  endfacet
  facet normal  0.000000e+00 -1.000000e+00  2.220446e-16
    outer loop
      vertex   2.891286e+00  3.727531e-17  6.678731e-01
      vertex   3.144104e+00 -3.079459e-17  3.613135e-01
      vertex   2.918186e+00  4.052330e-17  6.825007e-01
    endloop
  endfacet
  facet normal -9.364079e-23 -1.000000e+00  2.220446e-16
    outer loop
      vertex   2.918186e+00  4.052330e-17  6.825007e-01
      vertex   3.144104e+00 -3.079459e-17  3.613135e-01
      vertex   2.947004e+00  4.282146e-17  6.928507e-01
    endloop
  endfacet
  facet normal  1.976790e-22 -1.000000e+00  2.220447e-16
    outer loop
      vertex   2.947004e+00  4.282146e-17  6.928507e-01
      vertex   3.144104e+00 -3.079459e-17  3.613135e-01
      vertex   2.977063e+00  4.411591e-17  6.986804e-01
    endloop
  endfacet
  facet normal -1.069030e-22 -1.000000e+00  2.220446e-16
    outer loop
      vertex   2.977063e+00  4.411591e-17  6.986804e-01
      vertex   3.144104e+00 -3.079459e-17  3.613135e-01
      vertex   3.007661e+00  4.437633e-17  6.998532e-01
    endloop
  endfacet
  facet normal  2.290479e-22 -1.000000e+00  2.220447e-16
    outer loop
      vertex   3.007661e+00  4.437633e-17  6.998532e-01
      vertex   3.144104e+00 -3.079459e-17  3.613135e-01
      vertex   3.038078e+00  4.359661e-17  6.963416e-01
    endloop
  endfacet
  facet normal -2.346962e-22 -1.000000e+00  2.220446e-16
    outer loop
      vertex   3.038078e+00  4.359661e-17  6.963416e-01
      vertex   3.144104e+00 -3.079459e-17  3.613135e-01
      vertex   3.067603e+00  4.179501e-17  6.882280e-01
    endloop
  endfacet
  facet normal  0.000000e+00 -1.000000e+00  2.220446e-16
    outer loop
      vertex   3.067603e+00  4.179501e-17  6.882280e-01
      vertex   3.144104e+00 -3.079459e-17  3.613135e-01
      vertex   3.095544e+00  3.901378e-17  6.757025e-01
    endloop
  endfacet
  facet normal  0.000000e+00 -1.000000e+00  2.220446e-16
    outer loop
      vertex   3.095544e+00  3.901378e-17  6.757025e-01
      vertex   3.144104e+00 -3.079459e-17  3.613135e-01
      vertex   3.121245e+00  3.531810e-17  6.590586e-01
    endloop
  endfacet
  facet normal  1.630749e-22 -1.000000e+00  2.220446e-16
    outer loop
      vertex   3.121245e+00  3.531810e-17  6.590586e-01
      vertex   3.144104e+00 -3.079459e-17  3.613135e-01
      vertex   3.144104e+00  3.079459e-17  6.386865e-01
    endloop
  endfacet
  facet normal -5.740392e-23 -1.000000e+00  2.220446e-16
    outer loop
      vertex   3.144104e+00  3.079459e-17  6.386865e-01
      vertex   3.144104e+00 -3.079459e-17  3.613135e-01
      vertex   3.163586e+00  2.554928e-17  6.150637e-01
    endloop
  endfacet
  facet normal -2.306321e-22 -1.000000e+00  2.220447e-16
    outer loop
      vertex   3.163586e+00  2.554928e-17  6.150637e-01
      vertex   3.144104e+00 -3.079459e-17  3.613135e-01
      vertex   3.179233e+00  1.970512e-17  5.887440e-01
    endloop
  endfacet
  facet normal  4.881473e-22 -1.000000e+00  2.220446e-16
    outer loop
      vertex   3.179233e+00  1.970512e-17  5.887440e-01
      vertex   3.144104e+00 -3.079459e-17  3.613135e-01
      vertex   3.190679e+00  1.339909e-17  5.603441e-01
    endloop
  endfacet
  facet normal -2.233848e-22 -1.000000e+00  2.220447e-16
    outer loop
      vertex   3.190679e+00  1.339909e-17  5.603441e-01
      vertex   3.144104e+00 -3.079459e-17  3.613135e-01
      vertex   3.197656e+00  6.778990e-18  5.305299e-01
    endloop
  endfacet
  facet normal  5.089572e-23 -1.000000e+00  2.220446e-16
    outer loop
      vertex   3.197656e+00  6.778990e-18  5.305299e-01
      vertex   3.144104e+00 -3.079459e-17  3.613135e-01
      vertex   3.200000e+00  1.087705e-32  5.000000e-01
    endloop
  endfacet
endsolid vcg
